<svg width="14" height="16" viewBox="0 0 14 16" fill="none" xmlns="http://www.w3.org/2000/svg">
<path id="Vector" d="M7 0.965576C3.13406 0.965576 0 4.11508 0 8.00006C0 11.885 3.13406 15.0345 7 15.0345C10.8659 15.0345 14 11.885 14 8.00006C14 4.11508 10.8659 0.965576 7 0.965576ZM6.5 4.95827C5.80964 4.95827 5.25 5.51791 5.25 6.20827C5.25 6.89863 5.80964 7.45827 6.5 7.45827C7.19036 7.45827 7.75 6.89863 7.75 6.20827C7.75 5.51791 7.19036 4.95827 6.5 4.95827ZM8.75 10.9583C8.75 11.2987 8.47487 11.5738 8.13438 11.5738H5.86563C5.52513 11.5738 5.25 11.2987 5.25 10.9583V10.3427C5.25 10.0023 5.52513 9.72717 5.86563 9.72717H6.125V8.38882H5.86563C5.52513 8.38882 5.25 8.11369 5.25 7.77319V7.15756C5.25 6.81706 5.52513 6.54193 5.86563 6.54193H7.51563C7.85612 6.54193 8.13125 6.81706 8.13125 7.15756V9.72717H8.39063C8.73112 9.72717 9.00625 10.0023 9.00625 10.3427L8.75 10.9583Z" fill="black"/>
</svg>
